PathFileType	4	(X/Y/Z)	C:/Users/beibeiliu/ov580/test_trc/User1\sequence.12_training_dense_left.trc
DataRate	CameraRate	NumFrames	NumMarkers	Units	OrigDataRate	OrigDataStartFrame	OrigNumFrames
120	120	19	19	mm	120	39	304
Frame#	Time	ThumbCMC			ThumbMCP			ThumbIP			ThumbTip			IndexMCP			IndexPIP			IndexTip			MiddleMCP			MiddlePIP			MiddleTip			RingMCP			RingPIP			RingTip			PinkyMCP			PinkyPIP			PinkyTip			BackHand1			BackHand2			BackHand3	
		X0	Y0	Z0	X1	Y1	Z1	X2	Y2	Z2	X3	Y3	Z3	X4	Y4	Z4	X5	Y5	Z5	X6	Y6	Z6	X7	Y7	Z7	X8	Y8	Z8	X9	Y9	Z9	X10	Y10	Z10	X11	Y11	Z11	X12	Y12	Z12	X13	Y13	Z13	X14	Y14	Z14	X15	Y15	Z15	X16	Y16	Z16	X17	Y17	Z17	X18	Y18	Z18	
38	0.316667	-182.856	96.2756	15.7004	-149.35	90.4137	8.33936	-128.548	84.0584	-7.27483	-111.923	71.3455	-17.9924	-192.362	81.5642	-67.8223	-183.921	71.2596	-97.7315	-178.192	47.8698	-115.515	-216.566	69.8588	-75.3112	-213.274	52.9173	-104.993	-202.044	25.2292	-124.882	-232.877	50.1236	-69.0785	-226.344	32.319	-94.4047	-212.914	8.42814	-105.114	-245.653	26.2236	-46.2105	-240.313	6.30989	-60.0518	-219.854	-13.4632	-74.2612	-244.215	71.2627	-13.6128	-248.162	83.5301	15.5094	-216.92	98.9389	-3.10188	
39	0.325	-185.906	97.6242	13.8052	-156.156	91.8787	5.88203	-130.421	88.0445	-12.2354	-109.352	76.9401	-26.307	-194.923	78.8571	-73.8337	-189.3	70.0906	-96.5753	-176.864	46.8688	-116.988	-221.643	62.2312	-78.6429	-212.961	46.8266	-106.116	-202.006	23.9614	-121.9	-231.58	45.4313	-68.0616	-223.758	25.0789	-93.2517	-208.365	0.518651	-104.101	-242.196	18.2236	-45.7292	-232.6	0.0824226	-58.6459	-211.391	-16.299	-70.0343	-243.622	70.278	-15.1383	-251.105	76.8171	15.5964	-219.254	96.9295	-2.03145	
40	0.333333	-184.554	103.159	11.2119	-156.732	97.9279	0.492501	-133.938	95.6246	-15.4121	-111.969	86.5783	-27.7687	-199.615	76.6769	-75.271	-190.589	66.2169	-99.0691	-180.637	44.4721	-115.752	-221.858	58.2248	-78.1943	-213.462	43.9115	-104.739	-194.073	22.5719	-123.125	-232.789	37.6432	-67.3092	-221.846	21.0249	-92.0818	-199.581	-1.08526	-101.928	-237.769	16.4427	-42.9762	-227.339	-4.597	-54.8337	-205.602	-16.6856	-69.8252	-246.657	61.2665	-17.7002	-251.907	73.2321	15.773	-225.938	93.5525	-4.51053	
41	0.341667	-190.309	106.95	8.63749	-162.688	102.592	0.572217	-136.187	102.371	-20.0344	-118.15	92.7806	-33.2175	-200.952	76.8178	-73.6568	-194.748	65.4201	-98.402	-181.976	43.1925	-114.945	-222.636	53.4307	-79.3588	-211.86	39.5705	-105.535	-193.553	14.8459	-120.662	-231.713	31.5941	-65.5609	-216.462	16.828	-90.044	-193.648	-1.91503	-98.3818	-233.65	7.17076	-39.6677	-218.647	-8.83617	-52.4134	-195.247	-23.077	-64.6458	-245.174	58.519	-16.245	-250.395	70.9584	15.0183	-227.366	93.0349	-4.7614	
42	0.35	-195.346	105.349	4.36534	-165.502	111.001	-4.0131	-144.678	104.459	-24.9012	-125.056	99.098	-35.1321	-203.637	76.7332	-74.7703	-194.804	60.9705	-101.839	-177.956	41.1134	-118.821	-221.3	48.4763	-80.2168	-210.461	32.7835	-104.644	-184.74	13.8562	-121.529	-227.719	26.2896	-63.8452	-212.301	6.53014	-87.1891	-187.258	-5.91344	-94.8944	-227.711	3.32882	-36.7712	-211.377	-11.4632	-50.0955	-188.43	-21.0361	-62.3188	-245.169	54.9852	-13.4583	-251.917	65.3902	16.8663	-231.411	88.9334	-5.72172	
43	0.358333	-200.783	107.376	3.60591	-172.874	109.868	-8.37385	-151.838	111.201	-24.0186	-127.579	105.229	-40.3929	-208.207	68.1624	-76.2333	-198.551	60.9133	-100.822	-181.832	41.3195	-116.679	-221.593	42.9691	-75.523	-206.427	30.0542	-105.681	-184.355	10.8351	-117.983	-223.424	21.0438	-65.6643	-209.39	5.2222	-84.8565	-182.137	-11.0641	-91.3081	-221.108	1.02299	-38.2919	-205.536	-13.9491	-47.3532	-183.544	-21.3212	-59.2303	-243.934	49.973	-16.2582	-254.47	57.9097	17.3656	-234.12	86.7543	-6.57623	
44	0.366667	-208.098	103.809	3.41792	-176.9	114.549	-10.196	-154.967	117.059	-31.6116	-136.195	109.732	-43.2197	-209.324	68.2328	-75.7338	-201.069	56.1651	-100.53	-179.468	37.4794	-117.419	-220.698	41.7902	-75.1008	-208.574	25.466	-100.549	-182.33	9.21291	-118.527	-221.386	15.1516	-64.3112	-206.294	1.31154	-83.0889	-176.939	-12.1085	-89.1397	-218.163	0.231484	-33.0213	-196.662	-16.7143	-45.1058	-171.662	-19.0614	-58.7301	-243.305	44.8335	-13.267	-252.215	57.5703	15.5252	-237.75	83.3099	-11.5742	
45	0.375	-211.461	104.423	-1.59408	-182.185	114.182	-15.8251	-163.521	116.324	-30.892	-143.016	117.999	-43.0588	-211.685	64.8369	-78.558	-199.297	53.0611	-103.697	-178.568	37.718	-118.232	-220.232	35.5379	-78.5891	-204.842	17.7132	-102.757	-181.734	6.16021	-118.191	-219.547	16.0343	-63.5993	-202.471	-0.236014	-82.4966	-170.324	-11.5814	-89.7692	-210.29	-5.46849	-34.325	-191.826	-17.4496	-42.3236	-169.612	-20.1455	-56.4749	-243.669	37.0289	-11.9375	-254.487	53.4212	16.7172	-241.043	78.0852	-10.262	
46	0.383333	-215.414	105.025	-7.3156	-187.389	117.489	-17.3916	-168.786	119.833	-34.9651	-146.667	117.497	-50.2474	-213.466	62.6003	-79.2824	-202.56	49.5555	-102.618	-179.016	33.3646	-117.385	-219.931	33.7756	-79.8309	-202.822	17.7201	-105.475	-178.334	4.65427	-117.623	-217.345	8.60685	-60.1078	-197.568	-1.7813	-83.6696	-169.236	-12.1678	-88.3172	-205.177	-7.06448	-33.9636	-190.048	-14.6493	-43.081	-164.857	-17.8721	-54.446	-241.484	36.799	-15.8305	-252.73	48.0002	16.6323	-242.223	75.4346	-12.917	
47	0.391667	-217.711	104.909	-6.99369	-190.591	112.487	-19.6039	-170.829	124.241	-38.9978	-149.615	126.147	-50.2204	-213.595	59.5482	-83.0991	-201.955	50.6317	-103.597	-178.676	37.4548	-121.004	-219.474	31.0772	-76.7703	-202.656	14.5191	-102.598	-174.546	5.74679	-118.949	-212.161	6.74449	-63.805	-193.361	-2.34292	-83.1124	-163.681	-10.6074	-89.5744	-203.592	-4.20588	-33.2366	-182.466	-15.3131	-42.8848	-157.191	-15.7965	-56.0177	-239.207	33.8783	-12.5591	-252.775	46.0655	11.7269	-244.827	72.6105	-14.5108	
48	0.4	-221.338	103.003	-5.06012	-193.286	113.167	-19.006	-173.763	125.573	-38.7224	-152.38	123.002	-52.2972	-214.572	59.5694	-82.0371	-201.412	47.2165	-105.251	-178.789	36.4238	-120.868	-218.26	28.5373	-76.9481	-200.287	17.8436	-105.715	-170.551	8.60292	-120.709	-211.088	11.1482	-62.293	-188.823	-6.17384	-82.7792	-158.29	-4.84386	-91.551	-198.93	-7.72174	-33.9343	-177.747	-14.3572	-46.1389	-157.273	-14.4181	-57.1119	-239.767	30.5348	-13.2415	-250.737	41.518	11.3312	-245.766	66.8305	-12.5721	
49	0.408333	-220.742	105.105	-9.37347	-195.809	113.91	-20.1657	-176.524	123.257	-38.6806	-153.848	126.344	-53.4557	-214.177	58.4176	-84.1941	-199.482	49.0754	-107.92	-178.115	40.0007	-121.81	-218.307	29.0931	-79.7563	-200.338	16.3696	-103.949	-168.876	4.50413	-118.84	-210.541	7.79027	-63.5592	-187.245	-3.05244	-84.8369	-159.322	-7.6515	-90.0958	-202.657	-1.73907	-33.7252	-180.474	-11.3917	-46.6542	-153.372	-15.6278	-58.0458	-239.713	30.3134	-17.3329	-250.178	43.8832	12.0142	-245.323	67.8808	-14.9738	
50	0.416667	-223.004	103.795	-4.44077	-196.175	115.476	-21.3462	-177.455	122.517	-38.0008	-154.987	129.184	-52.6121	-214.727	62.3338	-80.5549	-200.741	46.4967	-107.028	-179.774	41.256	-122.005	-217.608	28.9775	-79.0245	-200.263	16.2662	-104.899	-172.277	6.36671	-117.974	-211.359	10.0176	-63.0649	-186.432	-4.76778	-84.4604	-156.267	-5.50793	-90.9837	-198.441	-5.46663	-35.3767	-179.739	-15.2654	-44.6268	-156.577	-13.4131	-59.7389	-239.632	30.5951	-15.3115	-251.975	39.2478	11.7278	-246.202	66.4304	-15.2735	
51	0.425	-222.337	103.649	-4.03388	-196.009	118.498	-18.9836	-176.806	121.499	-37.8113	-153.533	126.911	-55.0296	-214.911	59.3544	-82.2273	-200.945	48.7478	-106.883	-176.929	38.4698	-123.204	-217.521	29.9662	-79.3266	-202.716	20.3582	-104.778	-168.294	6.26886	-120.744	-210.564	11.6217	-65.5744	-187.284	-0.720085	-86.9703	-159.704	-5.94473	-89.9384	-199.985	-6.22916	-32.868	-176.466	-13.4662	-47.8368	-154.195	-8.89965	-60.4596	-238.045	31.1732	-17.4003	-250.234	37.6503	13.5757	-246.19	68.1321	-16.5953	
52	0.433333	-221.547	98.6233	-6.22172	-196.229	113.143	-17.4858	-174.36	123.419	-42.3742	-153.332	125.192	-53.5617	-214.908	57.3776	-80.1814	-201.348	47.2269	-105.204	-176.476	37.3498	-121.501	-217.415	26.6862	-82.2694	-202.477	19.9945	-105.723	-170.916	11.9556	-121.897	-210.847	7.87046	-61.9558	-188.565	-0.656733	-86.6024	-158.452	-5.28849	-91.4521	-198.81	-6.5391	-34.3123	-175.969	-13.291	-48.3769	-150.023	-13.3827	-61.0112	-236.507	30.3653	-18.2029	-252.26	37.0062	15.4548	-245.012	67.0597	-17.9885	
53	0.441667	-220.702	102.129	-3.49575	-193.407	115.405	-21.8738	-173.451	123.924	-40.6171	-153.646	124.419	-51.3619	-214.882	59.6547	-79.8029	-200.387	49.9304	-106.301	-179.727	41.9686	-120.997	-217.487	32.279	-83.5141	-200.317	19.5782	-107.962	-171.402	10.1061	-121.228	-211.403	12.7031	-66.7226	-190.792	-0.896612	-85.3984	-163.716	-3.00879	-93.5765	-201.8	-3.94959	-37.1867	-179.779	-11.889	-50.5061	-156.058	-12.8946	-62.7573	-240.523	29.4485	-14.0547	-251.779	39.4592	13.1268	-244.562	69.3807	-17.9496	
54	0.45	-218.189	102.297	-7.58323	-192.791	114.023	-18.8916	-172.329	123.04	-38.8022	-151.761	123.274	-50.4638	-214.49	60.3792	-80.9321	-199.429	49.9024	-109.219	-179.554	41.5358	-121.646	-218.904	29.6681	-80.4428	-199.802	20.8595	-108.1	-171.439	11.3352	-122.878	-213.574	9.6949	-63.8015	-191.164	-3.90582	-86.6971	-164.911	-4.00132	-93.8394	-202.415	-5.76411	-38.801	-182.885	-13.9557	-50.7463	-158.071	-11.9764	-62.6859	-240.576	30.7187	-16.822	-250.18	39.7245	15.1111	-242.241	70.7614	-15.7259	
55	0.458333	-215.14	100.72	-4.70719	-187.102	114.405	-19.6964	-168.254	117.908	-36.7742	-145.156	124.339	-50.5923	-214.501	62.2684	-78.8114	-200.071	51.6467	-106.262	-178.492	41.3908	-122.123	-219.55	34.9601	-81.743	-202.265	24.0339	-109.228	-176.758	10.4227	-120.7	-217.465	15.4263	-64.8164	-193.787	-2.51087	-89.4497	-168.057	-5.50185	-94.5495	-207.885	-5.93645	-37.9236	-189.797	-13.7462	-51.5854	-158.726	-15.9873	-61.9998	-240.281	36.6039	-17.1816	-251.238	45.7322	11.1069	-244.184	73.2216	-13.1584	
56	0.466667	-211.428	102.732	-5.69804	-183.045	114.096	-17.762	-162.82	119.415	-35.6317	-141.505	121.72	-46.3983	-213.006	65.877	-81.6026	-199.87	56.3399	-106.475	-179.823	45.4183	-121.736	-220.096	36.0455	-83.6725	-202.269	22.5372	-108.461	-174.961	8.16486	-121.492	-219.256	16.2053	-64.8455	-196.759	-1.54972	-89.2026	-168.299	-4.77447	-95.6961	-213.065	-1.31938	-38.1176	-194.853	-13.8848	-51.8277	-165.082	-17.9438	-62.5771	-242.386	34.1175	-20.3703	-254.214	46.0343	14.1268	-239.423	75.8004	-16.2376	
